<svg xmlns="http://www.w3.org/2000/svg" width="24" height="24" viewBox="0 0 24 24">
  <g id="Nav-icon-wanwuhulian" transform="translate(0 -0.004)">
    <rect id="矩形_2127" data-name="矩形 2127" width="24" height="24" rx="4" transform="translate(0 0.004)" fill="none"/>
    <g id="组_6551" data-name="组 6551" transform="translate(3 2.204)">
      <path id="路径_4497" data-name="路径 4497" d="M383.672,90.578l1.875-1.139V84.852l-1.875-1.139a1.377,1.377,0,0,1-1.2.416v6.033l.043-.007A1.383,1.383,0,0,1,383.672,90.578Z" transform="translate(-381.246 -77.145)"/>
      <path id="路径_4498" data-name="路径 4498" d="M403.733,152.425v-2.053l-3.567-2-2.142,1.3a1.561,1.561,0,0,1-.154.86l5,2.8A1.464,1.464,0,0,1,403.733,152.425Z" transform="translate(-395.183 -135.339)"/>
      <path id="路径_4499" data-name="路径 4499" d="M469.577,38.944v2.045l3.574,2,2.135-1.3a1.559,1.559,0,0,1,.157-.866l-5-2.8h0A1.465,1.465,0,0,1,469.577,38.944Z" transform="translate(-460.127 -36.029)"/>
      <path id="路径_4500" data-name="路径 4500" d="M398.009,41.753l2.142,1.3,3.567-2V39a1.461,1.461,0,0,1-.866-.909l-5,2.8A1.565,1.565,0,0,1,398.009,41.753Z" transform="translate(-395.167 -36.088)"/>
      <path id="路径_4501" data-name="路径 4501" d="M516.314,83.71l-1.86,1.13v4.6l1.86,1.13a1.377,1.377,0,0,1,1.216-.414V84.124c-.019,0-.038.008-.058.01A1.383,1.383,0,0,1,516.314,83.71Z" transform="translate(-500.741 -77.143)"/>
      <path id="路径_4502" data-name="路径 4502" d="M475.285,149.713l-2.135-1.3-3.574,2v2.045a1.462,1.462,0,0,1,.868.916l5-2.8A1.564,1.564,0,0,1,475.285,149.713Z" transform="translate(-460.127 -135.378)"/>
      <path id="路径_4503" data-name="路径 4503" d="M532.789,61.016a1.486,1.486,0,0,0,1.2-1.646,1.444,1.444,0,0,0-1.573-1.326,1.426,1.426,0,0,0-1.1.79l1.474.826Z" transform="translate(-516 -54.035)"/>
      <path id="路径_4504" data-name="路径 4504" d="M433.539,86.569v3.313l2.956,1.657,2.956-1.657V86.569l-2.956-1.656Z" transform="translate(-427.488 -78.225)"/>
      <path id="路径_4505" data-name="路径 4505" d="M370.8,148.2a1.486,1.486,0,0,0-1.216,1.648,1.444,1.444,0,0,0,1.573,1.326,1.426,1.426,0,0,0,1.106-.8l-1.463-.82Z" transform="translate(-369.576 -135.185)"/>
      <path id="路径_4506" data-name="路径 4506" d="M449.656,197.98l0,.005a1.522,1.522,0,0,0,.869,1.914,1.408,1.408,0,0,0,1.819-.914,1.567,1.567,0,0,0,0-1l-1.336.749Z" transform="translate(-441.998 -179.986)"/>
      <path id="路径_4507" data-name="路径 4507" d="M532.8,148.227v1.356l-1.473.825a1.494,1.494,0,0,0,.244.354,1.375,1.375,0,0,0,2.015.013,1.556,1.556,0,0,0,.013-2.121A1.393,1.393,0,0,0,532.8,148.227Z" transform="translate(-516.015 -135.208)"/>
      <path id="路径_4508" data-name="路径 4508" d="M372.266,58.845a1.5,1.5,0,0,0-.247-.36A1.375,1.375,0,0,0,370,58.472a1.556,1.556,0,0,0-.013,2.121,1.393,1.393,0,0,0,.814.43V59.664Z" transform="translate(-369.58 -54.039)"/>
      <path id="路径_4509" data-name="路径 4509" d="M452.343,20.038a1.521,1.521,0,0,0-.869-1.913,1.408,1.408,0,0,0-1.819.914,1.567,1.567,0,0,0,0,1.005l1.349-.756Z" transform="translate(-441.999 -18.039)"/>
    </g>
  </g>
</svg>
