<svg id="Nav-icon-seting" xmlns="http://www.w3.org/2000/svg" width="24" height="24" viewBox="0 0 24 24">
  <rect id="矩形_2158" data-name="矩形 2158" width="24" height="24" rx="4" fill="none"/>
  <path id="路径_4524" data-name="路径 4524" d="M24.15,19.249a.432.432,0,0,0-.324-.334h0a3.386,3.386,0,0,1-2.2-1.6,3.272,3.272,0,0,1-.3-2.665.417.417,0,0,0-.132-.442,9.016,9.016,0,0,0-2.882-1.674.433.433,0,0,0-.456.108,3.5,3.5,0,0,1-5.043.024.433.433,0,0,0-.5-.132,8.978,8.978,0,0,0-2.882,1.686.416.416,0,0,0-.132.442A3.274,3.274,0,0,1,9,17.314a3.386,3.386,0,0,1-2.2,1.6.42.42,0,0,0-.324.334,8.537,8.537,0,0,0,0,3.311.42.42,0,0,0,.324.334A3.386,3.386,0,0,1,9,24.484a3.27,3.27,0,0,1,.3,2.665.416.416,0,0,0,.132.442,9.012,9.012,0,0,0,2.882,1.674h.144a.432.432,0,0,0,.312-.132,3.454,3.454,0,0,1,4.884-.124q.064.061.124.124a.434.434,0,0,0,.54.132,8.992,8.992,0,0,0,2.93-1.662.417.417,0,0,0,.132-.442,3.272,3.272,0,0,1,.252-2.677,3.385,3.385,0,0,1,2.2-1.59.42.42,0,0,0,.324-.334A8.492,8.492,0,0,0,24.15,19.249Zm-8.838,5.235h0a3.585,3.585,0,1,1,0-7.17h0a3.585,3.585,0,1,1,0,7.17Z" transform="translate(-3.313 -8.846)"/>
</svg>
