<svg id="Nav-icon-zhinengxunjian" xmlns="http://www.w3.org/2000/svg" width="24" height="24" viewBox="0 0 24 24">
  <rect id="矩形_2075" data-name="矩形 2075" width="24" height="24" rx="4" fill="none"/>
  <path id="路径_4491" data-name="路径 4491" d="M2074.167-12.833a10,10,0,0,0-10,10,10,10,0,0,0,10,10,10,10,0,0,0,10-10A10,10,0,0,0,2074.167-12.833ZM2081.221,1.6a1.683,1.683,0,0,1-2.309,1.565,7.507,7.507,0,0,1-4.667,1.633,7.567,7.567,0,0,1-7.559-7.558,7.5,7.5,0,0,1,1.744-4.828l-.609-.609a.7.7,0,0,1,0-.987.7.7,0,0,1,.987,0l1.078,1.079h0l4.967,4.967a.7.7,0,0,1,0,.987.7.7,0,0,1-.493.2.7.7,0,0,1-.494-.2l-2.194-2.195a3,3,0,0,0-.452,1.585,3.027,3.027,0,0,0,3.024,3.023,3.007,3.007,0,0,0,3.018-2.929.7.7,0,0,1,.7-.676h.022a.7.7,0,0,1,.676.719,4.4,4.4,0,0,1-4.412,4.281,4.423,4.423,0,0,1-4.418-4.419,4.383,4.383,0,0,1,.843-2.589l-1.247-1.247a6.118,6.118,0,0,0-1.34,3.836,6.17,6.17,0,0,0,6.163,6.163,6.119,6.119,0,0,0,3.7-1.249,1.67,1.67,0,0,1-.1-.553,1.674,1.674,0,0,1,1.929-1.667,6.073,6.073,0,0,0,.625-2.589.7.7,0,0,1,.7-.686h.011a.7.7,0,0,1,.687.709A7.456,7.456,0,0,1,2080.955.7,1.675,1.675,0,0,1,2081.221,1.6Z" transform="translate(-2062.167 15.132)"/>
</svg>
