<svg xmlns="http://www.w3.org/2000/svg" width="24" height="24" viewBox="0 0 24 24">
  <g id="Nav-icon-shujufenxi" transform="translate(-156 -429)">
    <rect id="矩形_2141" data-name="矩形 2141" width="24" height="24" rx="4" transform="translate(156 429)" fill="none"/>
    <g id="组_6553" data-name="组 6553" transform="translate(-195.876 492.111)">
      <path id="路径_4513" data-name="路径 4513" d="M445.9-48.847H435.645V-59.111a10.924,10.924,0,0,1,7.086,3.175A10.925,10.925,0,0,1,445.9-48.847Z" transform="translate(-72.147 -0.883)"/>
      <path id="路径_4514" data-name="路径 4514" d="M360.651-34.035v6.245l-4.4,4.391a7.059,7.059,0,0,1-1.079-3.741,7.032,7.032,0,0,1,2.08-5.009,7.062,7.062,0,0,1,3.4-1.883m1.025-1.188a8.1,8.1,0,0,0-5.152,2.347,8.047,8.047,0,0,0-2.376,5.733,8.1,8.1,0,0,0,1.987,5.3l5.546-5.526V-35.22Z" transform="translate(0.105 -21.441)"/>
      <path id="路径_4515" data-name="路径 4515" d="M387.5,50.083l6.213.02a7.064,7.064,0,0,1-10.63,4.406l4.423-4.425m-.423-1.026-5.565,5.566a8.1,8.1,0,0,0,5.3,1.987h0a8.088,8.088,0,0,0,8.076-7.529l-7.821-.024Z" transform="translate(-24.472 -97.097)"/>
    </g>
  </g>
</svg>
