<svg id="Nav-icon-homepage" xmlns="http://www.w3.org/2000/svg" width="24" height="24" viewBox="0 0 24 24">
  <rect id="矩形_2159" data-name="矩形 2159" width="24" height="24" rx="4" fill="none"/>
  <path id="路径_4534" data-name="路径 4534" d="M72.788,65.633a1.477,1.477,0,0,1-1.4.948h-.5v5.988a2,2,0,0,1-2,2H65.4V70.573a.471.471,0,0,0-.5-.5h-2a.471.471,0,0,0-.5.5v3.992H58.917a2,2,0,0,1-2-2V66.581h-.5a1.583,1.583,0,0,1-1.4-.948,1.381,1.381,0,0,1,.4-1.647L62.908,58a1.518,1.518,0,0,1,2,0l7.484,5.988A1.381,1.381,0,0,1,72.788,65.633Z" transform="translate(-51.906 -53.625)"/>
</svg>
