<svg id="Nav-icon-history" xmlns="http://www.w3.org/2000/svg" width="24" height="24" viewBox="0 0 24 24">
  <rect id="矩形_2149" data-name="矩形 2149" width="24" height="24" rx="4" fill="none"/>
  <g id="组_6565" data-name="组 6565" transform="translate(2 2.606)">
    <path id="路径_4521" data-name="路径 4521" d="M435.957,122.716a3.906,3.906,0,1,0-3.906,3.906,3.906,3.906,0,0,0,3.906-3.906Zm-4.807,1.6-1.4-1.4a.636.636,0,1,1,.9-.9l.951.95,1.854-1.855a.636.636,0,1,1,.9.9v0l-2.305,2.305a.637.637,0,0,1-.9,0Z" transform="translate(-415.957 -107.715)"/>
    <path id="路径_4522" data-name="路径 4522" d="M369.818,61.787a.426.426,0,0,0-.546.413v.737c0,.462-.382,1.024-1.273,1.024s-1.273-.563-1.273-1.024v-.893a.423.423,0,0,0-.424-.423h-6.009a.423.423,0,0,0-.423.423v.893c0,.462-.383,1.024-1.273,1.024s-1.273-.563-1.273-1.024v-.8a.426.426,0,0,0-.513-.418,4.256,4.256,0,0,0-3.3,4.136V72.8h0v1.071a4.253,4.253,0,0,0,4.242,4.239h7.072a.421.421,0,0,0,.369-.631,5.108,5.108,0,0,1,7.066-6.927.421.421,0,0,0,.64-.363V65.86A4.253,4.253,0,0,0,369.818,61.787Zm.508,5.43a.568.568,0,0,1-.565.565H356.649a.568.568,0,0,1-.565-.565V65.805a.568.568,0,0,1,.565-.565H369.76a.568.568,0,0,1,.565.565Z" transform="translate(-353.508 -59.864)"/>
    <rect id="矩形_2174" data-name="矩形 2174" width="1.633" height="3.582" rx="0.816" transform="translate(4.294)"/>
    <rect id="矩形_2175" data-name="矩形 2175" width="1.633" height="3.582" rx="0.816" transform="translate(13.643)"/>
  </g>
</svg>
