<svg xmlns="http://www.w3.org/2000/svg" width="24" height="24" viewBox="0 0 24 24">
  <g id="Nav-icon-liandongfuhe" transform="translate(0 0.003)">
    <rect id="矩形_2130" data-name="矩形 2130" width="24" height="24" rx="4" transform="translate(0 -0.003)" fill="none"/>
    <path id="路径_4510" data-name="路径 4510" d="M11.977,17.827l4.5,2.278a2.2,2.2,0,0,0,.984.225,2.4,2.4,0,0,0,.985-.225l4.5-2.278a.829.829,0,0,0,.422-.7.8.8,0,0,0-.422-.7l-4.5-2.278a2.057,2.057,0,0,0-.985-.253,2.4,2.4,0,0,0-.984.225l-4.5,2.278a.875.875,0,0,0-.422.731.829.829,0,0,0,.422.7Zm10.491,1.435-4.416,2.419a1.315,1.315,0,0,1-1.125,0l-4.472-2.419a.6.6,0,0,0-.591,1.041l4.5,2.418a2.409,2.409,0,0,0,1.1.254,2.818,2.818,0,0,0,1.125-.254l4.5-2.418a.594.594,0,0,0,.2-.816h0A.6.6,0,0,0,22.468,19.262ZM11.077,13.011A1.275,1.275,0,1,1,9.8,11.7,1.294,1.294,0,0,1,11.077,13.011ZM26.53,22.974a1.275,1.275,0,1,1-1.275-1.311A1.293,1.293,0,0,1,26.53,22.974ZM13.677,10.245a.715.715,0,0,1-1.431,0h0a.715.715,0,0,1,1.431,0Zm-1.1-.6A10.017,10.017,0,0,1,24.558,11.5a9.761,9.761,0,0,1,2.765,7.051,9.936,9.936,0,0,1-1.216,4.511.639.639,0,0,1-.606.392.663.663,0,0,1-.661-.674.489.489,0,0,1,.02-.119V22.6l.032-.062A8.513,8.513,0,0,0,23.574,12.5a8.658,8.658,0,0,0-10.262-1.636m-3.205,3.116a8.413,8.413,0,0,0,.971,10.542A8.662,8.662,0,0,0,22.266,25.6a.594.594,0,0,1,.447-.178.664.664,0,0,1,.661.674.634.634,0,0,1-.185.439,10,10,0,0,1-5.864,1.908l-.234,0A9.958,9.958,0,0,1,7.311,18.328a9.656,9.656,0,0,1,1.578-5.065" transform="translate(-5.326 -6.474)"/>
  </g>
</svg>
