<svg xmlns="http://www.w3.org/2000/svg" width="24" height="24" viewBox="0 0 24 24">
  <g id="Nav-icon-zhinengjianhu" transform="translate(20029 17333)">
    <rect id="矩形_5126" data-name="矩形 5126" width="24" height="24" transform="translate(-20029 -17333)" fill="none"/>
    <g id="组_7728" data-name="组 7728" transform="translate(-18488.145 -18339.191)">
      <path id="联合_9" data-name="联合 9" d="M3.11,12.4a16.409,16.409,0,0,0,6.859,1.446A16.4,16.4,0,0,0,16.826,12.4c-2,4.416-6.858,5.649-6.858,5.649S5.1,16.815,3.11,12.4Zm14.558,3.453a1.169,1.169,0,0,1,.785-1.154l-.368-4.991a.3.3,0,1,1,.595-.044l.368,4.991a1.166,1.166,0,0,1,.764,1.783h0a.951.951,0,1,0-1.9.082h0a1.166,1.166,0,0,1-.244-.668Zm-15.581.665a.951.951,0,1,0-1.9-.082h0a1.165,1.165,0,0,1,.762-1.783l.369-4.991a.3.3,0,0,1,.6.044L1.547,14.7a1.166,1.166,0,0,1,.539,1.822Zm.458-5.787A10.15,10.15,0,0,1,2.3,9.057a1.167,1.167,0,1,1,.08-2.2A7.752,7.752,0,0,1,9.97,0a7.75,7.75,0,0,1,7.587,6.846,1.167,1.167,0,1,1,.085,2.224,10.144,10.144,0,0,1-.248,1.659A14.8,14.8,0,0,1,9.97,12.621,14.8,14.8,0,0,1,2.545,10.73Zm3.207-4.42A4.218,4.218,0,1,0,9.97,2.092,4.218,4.218,0,0,0,5.752,6.311Zm1.265,0A2.952,2.952,0,1,1,9.969,9.263,2.952,2.952,0,0,1,7.017,6.311Zm1.12,0A1.832,1.832,0,1,0,9.969,4.478,1.832,1.832,0,0,0,8.137,6.311Zm.788,0A1.045,1.045,0,1,1,9.97,7.356,1.045,1.045,0,0,1,8.925,6.311Z" transform="translate(-1538.856 1009.19)" stroke="rgba(0,0,0,0)" stroke-miterlimit="10" stroke-width="1"/>
    </g>
  </g>
</svg>
